<?xml version="1.0"?>
<svg xmlns="http://www.w3.org/2000/svg" height="512px" viewBox="0 -68 448 448" width="512px" class=""><g><path d="m328 168c0 57.4375-46.5625 104-104 104s-104-46.5625-104-104 46.5625-104 104-104 104 46.5625 104 104zm0 0" data-original="#000000" class="active-path" data-old_color="#DACFCF" fill="#F2E7E7"/><path d="m224 24c-79.527344 0-144 64.472656-144 144s64.472656 144 144 144 144-64.472656 144-144c-.09375-79.492188-64.507812-143.90625-144-144zm0 264c-66.273438 0-120-53.726562-120-120s53.726562-120 120-120 120 53.726562 120 120c-.074219 66.242188-53.757812 119.925781-120 120zm0 0" data-original="#000000" class="active-path" data-old_color="#DACFCF" fill="#F2E7E7"/><path d="m424 0h-8c-13.253906 0-24 10.746094-24 24v32c0 13.253906 10.746094 24 24 24v224h8v-224c13.253906 0 24-10.746094 24-24v-32c0-13.253906-10.746094-24-24-24zm0 0" data-original="#000000" class="active-path" data-old_color="#DACFCF" fill="#F2E7E7"/><path d="m48 8v40h-16v-40h-8v40h-16v-40h-8v48c0 13.253906 10.746094 24 24 24v224h8v-224c13.253906 0 24-10.746094 24-24v-48zm0 0" data-original="#000000" class="active-path" data-old_color="#DACFCF" fill="#F2E7E7"/></g> </svg>
