<?xml version="1.0" encoding="utf-8"?>
<!-- Generator: Adobe Illustrator 19.0.0, SVG Export Plug-In . SVG Version: 6.00 Build 0)  -->
<svg version="1.1" id="Layer_1" xmlns="http://www.w3.org/2000/svg" xmlns:xlink="http://www.w3.org/1999/xlink" x="0px" y="0px"
	 viewBox="0 0 96 96" style="enable-background:new 0 0 96 96;" xml:space="preserve">
<style type="text/css">
	.st0{fill:#988e94;}
</style>
<g id="XMLID_1_">
	<path id="XMLID_3_" class="st0" d="M76.2,23.6c-2.8-3.4-6.8-5.1-11.9-5.4c-5.3,0-9.2,2.3-11.9,5.4c-2.8,3.1-4.2,5-4.3,5.4
		c-0.1-0.4-1.5-2.3-4.3-5.4c-2.8-3.1-6.3-5.4-11.9-5.4c-5.1,0.3-9.2,2.1-11.9,5.4c-2.8,3.3-4.2,6.9-4.3,10.8c0,2.8,0.5,8.2,3.6,14.5
		c3.1,6.2,12.7,15.9,28.9,28.9c16.1-12.9,25.8-22.6,28.9-28.9c3.1-6.3,3.6-11.8,3.6-14.5c-0.1-3.9-1.5-7.5-4.3-10.9V23.6z"/>
</g>
</svg>
